<?xml version="1.0" encoding="iso-8859-1"?>
<!-- Generator: Adobe Illustrator 19.0.0, SVG Export Plug-In . SVG Version: 6.00 Build 0)  -->
<svg xmlns="http://www.w3.org/2000/svg" xmlns:xlink="http://www.w3.org/1999/xlink" version="1.1" id="Layer_1" x="0px" y="0px" viewBox="0 0 512 512" style="enable-background:new 0 0 512 512;" xml:space="preserve" width="512" height="512">
<g>
	<polygon style="fill:#575F64;" points="46.582,118.709 35.728,97 0,97 0,67 54.272,67 73.418,105.291  "/>
	<polygon style="fill:#32393F;" points="344.418,118.709 317.582,105.291 336.728,67 391,67 391,97 355.272,97  "/>
	<polygon style="fill:#E63950;" points="346,97 314.2,127 73.5,127 45,97 75,7 316,7  "/>
	<polygon style="fill:#AE2538;" points="346,97 314.2,127 196,127 196,7 316,7  "/>
	<polygon style="fill:#7C8388;" points="324.401,127 66.599,127 96.599,37 294.401,37  "/>
	<polygon style="fill:#575F64;" points="324.401,127 196,127 196,37 294.401,37  "/>
	<rect x="30" y="217" style="fill:#575F64;" width="90" height="90"/>
	<polygon style="fill:#FF637B;" points="391,142 391,247 0,247 0,142 45,97 346,97  "/>
	<polygon style="fill:#E63950;" points="391,142 391,247 196,247 196,97 346,97  "/>
	<rect x="120" y="157" style="fill:#FFDA2D;" width="106" height="30"/>
	<rect y="157" style="fill:#FFDA2D;" width="90" height="30"/>
	<rect x="196" y="157" style="fill:#FDBF00;" width="30" height="30"/>
	<path style="fill:#ECECF1;" d="M497,157c-79.501,0-102.7-18.3-136-50.4c-26.1,26.1-45.901,50.4-135,50.4h-15v77.699   C211,421,358.299,502,361,505c2.701-2.999,151-97.5,151-270.3V157H497z"/>
	<path style="fill:#D3D3D8;" d="M512,157v77.699C512,407.5,363.701,502,361,505V106.601c33.3,32.1,56.499,50.4,136,50.4H512z"/>
	<path style="fill:#4BB9EC;" d="M451,214.6v20.099C451,325.6,401.499,391.3,361,428.8c-41.7-36.301-90-98.401-90-194.101V214.9   c41.4-4.501,68.101-15.601,90-30C383.5,199.9,411.4,210.399,451,214.6z"/>
	<path style="fill:#0095FF;" d="M451,214.6v20.099C451,325.6,401.499,391.3,361,428.8V184.9C383.5,199.9,411.4,210.399,451,214.6z"/>
</g>















</svg>
